<svg height="512" viewBox="0 0 96 96" width="512" xmlns="http://www.w3.org/2000/svg"><g id="Airport_Pick_Up" data-name="Airport Pick Up"><g fill="#585c9a"><path d="m7.6 26.32a.94.94 0 0 1 -.87-1v-4a.94.94 0 0 1 .87-1 .94.94 0 0 1 .88 1v4a.94.94 0 0 1 -.88 1z"/><path d="m11.55 26.32a.94.94 0 0 1 -.87-1v-4a.94.94 0 0 1 .87-1 .94.94 0 0 1 .87 1v4a.94.94 0 0 1 -.87 1z"/><path d="m15.5 26.32a.94.94 0 0 1 -.87-1v-4a.88.88 0 1 1 1.74 0v4a.94.94 0 0 1 -.87 1z"/><path d="m19.44 26.32a.94.94 0 0 1 -.87-1v-4a.88.88 0 1 1 1.75 0v4a.94.94 0 0 1 -.88 1z"/><path d="m56.75 50.79a1 1 0 0 1 -1-1v-4a1 1 0 0 1 2 0v4a1 1 0 0 1 -1 1z"/><path d="m61.28 50.79a1 1 0 0 1 -1-1v-4a1 1 0 0 1 2 0v4a1 1 0 0 1 -1 1z"/><path d="m65.81 50.79a1 1 0 0 1 -1-1v-4a1 1 0 0 1 2 0v4a1 1 0 0 1 -1 1z"/><path d="m70.34 50.79a1 1 0 0 1 -1-1v-4a1 1 0 0 1 2 0v4a1 1 0 0 1 -1 1z"/></g><path d="m13.53 58.37h64.03v36.63h-64.03z" fill="#adcaf4"/><rect fill="#d5edf4" height="14.19" rx="1.97" width="15.94" x="52.95" y="73.69"/><rect fill="#d5edf4" height="14.19" rx="1.97" width="7.63" x="41.51" y="73.69"/><path d="m19.07 68.12h14.57v26.77h-14.57z" fill="#7193d6"/><path d="m19.07 58.37h14.57v5.49h-14.57z" fill="#7193d6"/><path d="m13.53 79v16h1v-16zm15-20.58v36.58h2v-36.63z" fill="#585c9a"/><path d="m28.54 58.37v36.63h2v-36.63zm16 0v36.63h2v-36.63z" fill="#585c9a"/><path d="m44.55 58.37v36.63h2v-36.63zm16 0v36.63h2v-36.63z" fill="#585c9a"/><path d="m60.55 58.37v36.63h2v-36.63z" fill="#585c9a"/><path d="m29.54 78h-16v17h1v-15h14v15h2v-16a1 1 0 0 0 -1-1z" fill="#585c9a"/><path d="m45.55 78h-16a1 1 0 0 0 -1 1v16h2v-15h14v15h2v-16a1 1 0 0 0 -1-1z" fill="#585c9a"/><path d="m61.55 78h-16a1 1 0 0 0 -1 1v16h2v-15h14v15h2v-16a1 1 0 0 0 -1-1z" fill="#585c9a"/><path d="m61.55 78a1 1 0 0 0 -1 1v16h2v-15h15v-2z" fill="#585c9a"/><path d="m13.52 54.1h67.5v4.26h-67.5z" fill="#7a7aad"/><path d="m13.52 54.1h24.01v4.26h-24.01z" fill="#434376"/><path d="m13.52 63.86h67.5v4.26h-67.5z" fill="#7a7aad"/><path d="m13.52 63.86h24.01v4.26h-24.01z" fill="#434376"/><path d="m3.84 33.82h19.37v7.41h-19.37z" fill="#adcaf4"/><rect fill="#fff" height="2.63" rx="1.31" width="13.58" x="6.73" y="36.21"/><path d="m1.84 29.57h23.37v4.25h-23.37z" fill="#7a7aad"/><rect fill="#ac9dd5" height="4.25" rx="2.12" width="11.98" x="7.54" y="29.57"/><path d="m25.21 29.57h-23.37l4.89-4.25h13.59z" fill="#eec34b"/><path d="m1.84 41.23h23.37v4.25h-23.37z" fill="#7a7aad"/><rect fill="#ac9dd5" height="4.25" rx="2.12" width="11.98" x="7.54" y="41.23"/><path d="m20.92 54.1h-14.79l-4.29-8.62h23.37z" fill="#ee822d"/><path d="m17.34 54.1h-7.63l-1.62-4.59a1.28 1.28 0 0 1 1.2-1.7h8.47a1.28 1.28 0 0 1 1.2 1.7z" fill="#eec34b"/><path d="m26.05 94.89h-25.05c2.53-5.34 5.13-10 5.13-18.15v-22.64h14.79v22.64c0 8.19 2.75 13.13 5.13 18.15z" fill="#f4a261"/><path d="m8.46 91.89a1.81 1.81 0 0 1 -1.68-2.46 35.8 35.8 0 0 0 2.35-12.69v-17.83a1.8 1.8 0 0 1 1.8-1.81h5.19a1.8 1.8 0 0 1 1.8 1.81v17.83a36 36 0 0 0 2.34 12.69 1.8 1.8 0 0 1 -1.67 2.46z" fill="#f4de7f"/><path d="m8.28 33.82v7.41h2v-7.41zm8.5 0v7.41h2v-7.41z" fill="#585c9a"/><path d="m9.78 84.62h7.49v10.27h-7.49z" fill="#f4a261"/><path d="m15.15 57.37h-3.25a2.29 2.29 0 0 0 -2.3 2.29v18a2.3 2.3 0 0 0 2.3 2.34h3.25a2.29 2.29 0 0 0 2.29-2.29v-18a2.28 2.28 0 0 0 -2.29-2.34zm-3.55 6.23h3.84v4.06h-3.84zm0 6.06h3.84v4h-3.84zm.3-10.29h3.25a.29.29 0 0 1 .29.29v1.94h-3.84v-1.94a.29.29 0 0 1 .3-.29zm3.25 18.63h-3.25a.29.29 0 0 1 -.3-.29v-2h3.84v2a.29.29 0 0 1 -.29.29z" fill="#ee822d"/><path d="m75.14 54.1h-23.14l1.93-3.32a2 2 0 0 1 1.71-1h15.85a2 2 0 0 1 1.71 1z" fill="#eec34b"/><path d="m94.7 9.12a5 5 0 0 1 -3 6.41l-40.28 14.67a11.53 11.53 0 0 1 -8.8-.39l-3.1-1.46a2.82 2.82 0 0 1 -1.45-1.58l-1.28-3.52 48.08-17.5c4.57-1.67 8.78.49 9.83 3.37z" fill="#fb7c68"/><path d="m38.01 15.81-5.52 2.01 4.31 5.43 7.87-2.87z" fill="#34a0a4"/><path d="m47.3 3.04 5.61-2.04 26.26 12.96-13.9 5.06z" fill="#34a0a4"/><rect fill="#34a0a4" height="3.5" rx="1.69" transform="matrix(.94 -.342 .342 .94 -6.78 15.83)" width="10.58" x="36.22" y="25.38"/><rect fill="#adcaf4" height="4.07" rx=".91" transform="matrix(.94 -.342 .342 .94 -4.87 19.33)" width="4.07" x="50.34" y="21.44"/><rect fill="#adcaf4" height="4.07" rx=".91" transform="matrix(.94 -.342 .342 .94 -3.57 21.58)" width="4.07" x="57.37" y="18.88"/><path d="m94.27 8.23-5.41 2a3.77 3.77 0 0 1 -4.86-2.23l-.6-1.68 1.44-.52c4.09-1.53 7.94.03 9.43 2.43z" fill="#adcaf4"/></g></svg>