<svg id="Capa_1" enable-background="new 0 0 512 512" height="512" viewBox="0 0 512 512" width="512" xmlns="http://www.w3.org/2000/svg" xmlns:xlink="http://www.w3.org/1999/xlink"><linearGradient id="lg1"><stop offset="0" stop-color="#fdb4ba"/><stop offset="1" stop-color="#fe5694"/></linearGradient><linearGradient id="SVGID_1_" gradientUnits="userSpaceOnUse" x1="32.185" x2="143.581" xlink:href="#lg1" y1="207.745" y2="267.635"/><linearGradient id="lg2"><stop offset="0" stop-color="#fd3581" stop-opacity="0"/><stop offset=".2815" stop-color="#fa317d" stop-opacity=".282"/><stop offset=".5604" stop-color="#f02571" stop-opacity=".56"/><stop offset=".8375" stop-color="#df115e" stop-opacity=".838"/><stop offset="1" stop-color="#d2024e"/></linearGradient><linearGradient id="SVGID_00000052822324440869163760000012552681722658439554_" gradientUnits="userSpaceOnUse" x1="94.514" x2="102.898" xlink:href="#lg2" y1="282.03" y2="321.558"/><linearGradient id="SVGID_00000038373377914558053000000014549852843325036719_" gradientUnits="userSpaceOnUse" x1="109.74" x2="155.256" xlink:href="#lg1" y1="261.766" y2="306.085"/><linearGradient id="SVGID_00000146486278721429972240000007805031646124847003_" gradientUnits="userSpaceOnUse" x1="48.94" x2="139.973" xlink:href="#lg2" y1="201.341" y2="291.309"/><linearGradient id="SVGID_00000076583520458691014960000012840059119747841201_" gradientUnits="userSpaceOnUse" x1="406.082" x2="482.741" xlink:href="#lg1" y1="213.257" y2="292.312"/><linearGradient id="SVGID_00000101088842204026807070000017854116270481199267_" gradientUnits="userSpaceOnUse" x1="460.261" x2="400.636" xlink:href="#lg2" y1="252.071" y2="233.971"/><linearGradient id="SVGID_00000093876260127605758950000004293811374459943595_" gradientUnits="userSpaceOnUse" x1="419.745" x2="412.558" xlink:href="#lg2" y1="277.163" y2="325.076"/><linearGradient id="SVGID_00000121268659207503750300000008662835172799703177_" gradientUnits="userSpaceOnUse" x1="362.124" x2="398.058" xlink:href="#lg1" y1="249.794" y2="291.717"/><linearGradient id="SVGID_00000047772355700270113240000008617849742681964688_" gradientUnits="userSpaceOnUse" x1="282.719" x2="398.773" xlink:href="#lg2" y1="179.152" y2="290.947"/><linearGradient id="SVGID_00000039092562499543855770000004333202221600723897_" gradientUnits="userSpaceOnUse" x1="256" x2="256" xlink:href="#lg1" y1="140.675" y2="280.865"/><linearGradient id="lg3"><stop offset="0" stop-color="#f1b0a2"/><stop offset="1" stop-color="#ca6e59"/></linearGradient><linearGradient id="SVGID_00000163779737036656167170000016652705839388844204_" gradientTransform="matrix(.996 -.087 .087 .996 -28.238 20.075)" gradientUnits="userSpaceOnUse" x1="18.66" x2="40.706" xlink:href="#lg3" y1="320.08" y2="320.08"/><linearGradient id="SVGID_00000060734329082362569770000014608944307120242105_" gradientUnits="userSpaceOnUse" x1="465.678" x2="494.502" xlink:href="#lg3" y1="334.647" y2="337.529"/><linearGradient id="lg4"><stop offset="0" stop-color="#eaf9fa"/><stop offset="1" stop-color="#b4d2e2"/></linearGradient><linearGradient id="SVGID_00000034075033117956342340000006849913154249107623_" gradientTransform="matrix(.707 .707 -.707 .707 327.903 -118.584)" gradientUnits="userSpaceOnUse" x1="295.979" x2="318.343" xlink:href="#lg4" y1="325.405" y2="347.77"/><linearGradient id="lg5"><stop offset="0" stop-color="#c8effe"/><stop offset="1" stop-color="#62dbfb"/></linearGradient><linearGradient id="SVGID_00000075851348115416350170000006652347000407745701_" gradientUnits="userSpaceOnUse" x1="174.859" x2="193.603" xlink:href="#lg5" y1="454.109" y2="472.853"/><linearGradient id="SVGID_00000158720705729213621230000013131814273813339326_" gradientUnits="userSpaceOnUse" x1="71.911" x2="100.613" y1="354.886" y2="383.588"><stop offset="0" stop-color="#fd4755"/><stop offset="1" stop-color="#a72b2b"/></linearGradient><linearGradient id="SVGID_00000103248989830879275980000017594239701064470144_" gradientUnits="userSpaceOnUse" x1="413.383" x2="440.264" xlink:href="#lg5" y1="454.085" y2="480.966"/><linearGradient id="lg6"><stop offset="0" stop-color="#fef0ae"/><stop offset="1" stop-color="#fac600"/></linearGradient><linearGradient id="SVGID_00000108989039017555414310000000769647383522843321_" gradientUnits="userSpaceOnUse" x1="241.918" x2="268.8" xlink:href="#lg6" y1="57.75" y2="84.632"/><linearGradient id="SVGID_00000117657120538405748980000006077929621651332537_" gradientUnits="userSpaceOnUse" x1="24.419" x2="80.605" xlink:href="#lg5" y1="65.891" y2="65.891"/><linearGradient id="lg7"><stop offset="0" stop-color="#07b2cd" stop-opacity="0"/><stop offset=".4553" stop-color="#05a5ce" stop-opacity=".455"/><stop offset="1" stop-color="#0290cf"/></linearGradient><linearGradient id="SVGID_00000134216085059389484930000014141561090066967436_" gradientUnits="userSpaceOnUse" x1="47.879" x2="66.532" xlink:href="#lg7" y1="115.689" y2="97.497"/><linearGradient id="SVGID_00000000921426403157647130000017353672958185863080_" gradientUnits="userSpaceOnUse" x1="61.847" x2="61.847" xlink:href="#lg7" y1="122.859" y2="131.162"/><linearGradient id="SVGID_00000134947564428716947740000013076303196503840905_" gradientUnits="userSpaceOnUse" x1="61.847" x2="61.847" xlink:href="#lg7" y1="118.714" y2="129.347"/><linearGradient id="SVGID_00000011716947372411504390000010072655988336878505_" gradientUnits="userSpaceOnUse" x1="54.062" x2="36.56" xlink:href="#lg7" y1="12.775" y2="42.252"/><linearGradient id="lg8"><stop offset="0" stop-color="#8bc727"/><stop offset=".1318" stop-color="#83c528"/><stop offset=".343" stop-color="#6bbd2b"/><stop offset=".6071" stop-color="#45b131"/><stop offset=".9112" stop-color="#11a038"/><stop offset="1" stop-color="#009b3a"/></linearGradient><linearGradient id="SVGID_00000103242388418228290590000002886212339252235653_" gradientTransform="matrix(.707 -.707 .707 .707 1190.941 311.416)" gradientUnits="userSpaceOnUse" x1="-408.306" x2="-335.609" xlink:href="#lg8" y1="-714.211" y2="-714.211"/><linearGradient id="lg9"><stop offset="0" stop-color="#026841" stop-opacity="0"/><stop offset=".2376" stop-color="#026441" stop-opacity=".238"/><stop offset=".4745" stop-color="#015840" stop-opacity=".475"/><stop offset=".7111" stop-color="#01443f" stop-opacity=".711"/><stop offset=".9463" stop-color="#00283d" stop-opacity=".946"/><stop offset="1" stop-color="#00213d"/></linearGradient><linearGradient id="SVGID_00000052072284170812661540000007183834563152802950_" gradientTransform="matrix(.707 -.707 .707 .707 1190.941 311.416)" gradientUnits="userSpaceOnUse" x1="-377.952" x2="-353.817" xlink:href="#lg9" y1="-649.778" y2="-673.318"/><linearGradient id="SVGID_00000085941407506127641420000015022199240480130988_" gradientTransform="matrix(.707 -.707 .707 .707 1190.941 311.416)" gradientUnits="userSpaceOnUse" x1="-359.879" x2="-359.879" xlink:href="#lg9" y1="-640.502" y2="-629.759"/><linearGradient id="SVGID_00000158720256870438882980000002118527410277678256_" gradientTransform="matrix(.707 -.707 .707 .707 1190.941 311.416)" gradientUnits="userSpaceOnUse" x1="-359.879" x2="-359.879" xlink:href="#lg9" y1="-645.865" y2="-632.107"/><linearGradient id="SVGID_00000110448011588375280300000013785657090427043974_" gradientTransform="matrix(.707 -.707 .707 .707 1190.941 311.416)" gradientUnits="userSpaceOnUse" x1="-369.952" x2="-392.597" xlink:href="#lg9" y1="-782.936" y2="-744.796"/><linearGradient id="SVGID_00000159445748519975628400000013133195044778203575_" gradientTransform="matrix(.707 -.707 .707 .707 1043.817 312.257)" gradientUnits="userSpaceOnUse" x1="-681.471" x2="-700.103" xlink:href="#lg6" y1="-578.284" y2="-544.002"/><linearGradient id="lg10"><stop offset="0" stop-color="#fea613" stop-opacity="0"/><stop offset=".2032" stop-color="#fda215" stop-opacity=".203"/><stop offset=".4052" stop-color="#fb961b" stop-opacity=".405"/><stop offset=".6066" stop-color="#f68225" stop-opacity=".607"/><stop offset=".8066" stop-color="#f06633" stop-opacity=".807"/><stop offset="1" stop-color="#e94444"/></linearGradient><linearGradient id="SVGID_00000114775138036989374720000003260530572456768684_" gradientTransform="matrix(.707 -.707 .707 .707 1043.817 312.257)" gradientUnits="userSpaceOnUse" x1="-656.057" x2="-695.183" xlink:href="#lg10" y1="-562.33" y2="-547.425"/><linearGradient id="SVGID_00000155145743467647970340000005207083000602234536_" gradientTransform="matrix(.707 -.707 .707 .707 1043.817 312.257)" gradientUnits="userSpaceOnUse" x1="-533.062" x2="-533.062" xlink:href="#lg6" y1="-618.403" y2="-580.954"/><linearGradient id="SVGID_00000039122582369412586580000009316748222662563758_" gradientTransform="matrix(0 1 -1 0 -3808.808 -431.964)" gradientUnits="userSpaceOnUse" x1="731.563" x2="692.437" xlink:href="#lg10" y1="-4051.328" y2="-4036.423"/><linearGradient id="SVGID_00000121254301925507974050000017503703150466541488_" gradientTransform="matrix(.707 .707 -.707 .707 -2275.818 1306.306)" gradientUnits="userSpaceOnUse" x1="1230.888" x2="1230.888" xlink:href="#lg8" y1="-2502.564" y2="-2465.115"/><linearGradient id="SVGID_00000065043394447034610510000006724972325619495323_" gradientTransform="matrix(-1 0 0 -1 -1531.597 -3546.319)" gradientUnits="userSpaceOnUse" x1="-1848.04" x2="-1887.166" xlink:href="#lg9" y1="-3966.326" y2="-3951.421"/><linearGradient id="SVGID_00000022552245335173659720000005497150513594915218_" gradientUnits="userSpaceOnUse" x1="132.12" x2="132.12" xlink:href="#lg4" y1="175.746" y2="223.912"/><linearGradient id="SVGID_00000062906451981536076160000002072445471477035653_" gradientUnits="userSpaceOnUse" x1="190.002" x2="190.002" xlink:href="#lg4" y1="175.746" y2="223.912"/><linearGradient id="SVGID_00000073708316706370203160000014322920093430608574_" gradientUnits="userSpaceOnUse" x1="253.86" x2="253.86" xlink:href="#lg4" y1="175.746" y2="223.912"/><linearGradient id="SVGID_00000176761191164643799690000011753119214687070636_" gradientUnits="userSpaceOnUse" x1="314.531" x2="314.531" xlink:href="#lg4" y1="175.746" y2="223.912"/><linearGradient id="SVGID_00000102526900236452725860000004664039253593220224_" gradientUnits="userSpaceOnUse" x1="378.433" x2="378.433" xlink:href="#lg4" y1="175.746" y2="223.912"/><g><g><g><g><g><path d="m32.743 308.001-19.001-109.496c-4.986-8.334-.28-19.074 9.216-21.11 41.82-8.965 83.916-15.501 126.143-19.589v120.897c0 18.556-13.818 34.178-32.227 36.507-22.699 2.872-45.349 6.451-67.928 10.738-10.429 1.981-19.25-7.778-16.203-17.947z" fill="url(#SVGID_1_)"/><path d="m149.102 213.746v64.959c0 18.55-13.823 34.177-32.227 36.507-22.695 2.868-45.345 6.452-67.927 10.742-10.429 1.972-19.256-7.785-16.209-17.956l-16.354-94.252z" fill="url(#SVGID_00000052822324440869163760000012552681722658439554_)"/><path d="m124.059 283.554-20.922-20.86 10.313-9.549h35.65v25.569c0 18.535-13.785 34.177-32.172 36.507l-.445.056c13.581-4.425 17.691-21.637 7.576-31.723z" fill="url(#SVGID_00000038373377914558053000000014549852843325036719_)"/><path d="m124.059 283.554-20.922-20.86 10.313-9.549h35.65v25.569c0 18.535-13.785 34.177-32.172 36.507l-.445.056c13.581-4.425 17.691-21.637 7.576-31.723z" fill="url(#SVGID_00000146486278721429972240000007805031646124847003_)"/></g><g><path d="m479.257 308.001 19.001-109.496c4.986-8.334.28-19.074-9.216-21.11-41.82-8.965-83.916-15.501-126.143-19.589v120.897c0 18.556 13.818 34.178 32.227 36.507 22.699 2.872 45.349 6.451 67.928 10.738 10.429 1.981 19.25-7.778 16.203-17.947z" fill="url(#SVGID_00000076583520458691014960000012840059119747841201_)"/><path d="m479.257 308.001 19.001-109.496c4.986-8.334.28-19.074-9.216-21.11-41.82-8.965-83.916-15.501-126.143-19.589v120.897c0 18.556 13.818 34.178 32.227 36.507 22.699 2.872 45.349 6.451 67.928 10.738 10.429 1.981 19.25-7.778 16.203-17.947z" fill="url(#SVGID_00000101088842204026807070000017854116270481199267_)"/><path d="m479.262 307.997c3.047 10.171-5.78 19.928-16.209 17.956-22.583-4.29-45.233-7.875-67.927-10.742-18.404-2.33-32.227-17.956-32.227-36.507v-64.959h132.718z" fill="url(#SVGID_00000093876260127605758950000004293811374459943595_)"/><path d="m387.941 283.554 20.922-20.86-10.313-9.549h-35.65v25.569c0 18.535 13.785 34.177 32.172 36.507l.445.056c-13.581-4.425-17.691-21.637-7.576-31.723z" fill="url(#SVGID_00000121268659207503750300000008662835172799703177_)"/><path d="m387.941 283.554 20.922-20.86-10.313-9.549h-35.65v25.569c0 18.535 13.785 34.177 32.172 36.507l.445.056c-13.581-4.425-17.691-21.637-7.576-31.723z" fill="url(#SVGID_00000047772355700270113240000008617849742681964688_)"/></g></g><path d="m97.179 252.821-16.574-110.622c-1.443-9.63 4.887-18.701 14.417-20.701 106.479-22.344 215.478-22.344 321.957 0 9.53 2 15.86 11.071 14.417 20.701l-16.575 110.623c-1.307 8.726-9.639 14.589-18.294 12.874-93.06-18.435-187.992-18.435-281.053-.001-8.656 1.715-16.987-4.147-18.295-12.874z" fill="url(#SVGID_00000039092562499543855770000004333202221600723897_)"/></g><g><path d="m44.995 510.744c-8.722.763-16.411-5.689-17.174-14.411l-27.76-317.291c-.763-8.722 5.689-16.411 14.411-17.174 8.722-.763 16.411 5.689 17.174 14.411l27.759 317.29c.764 8.722-5.688 16.411-14.41 17.175z" fill="url(#SVGID_00000163779737036656167170000016652705839388844204_)"/><path d="m467.005 510.744c8.722.763 16.411-5.689 17.174-14.411l27.759-317.29c.763-8.722-5.689-16.411-14.411-17.174-8.722-.763-16.411 5.689-17.174 14.411l-27.759 317.29c-.763 8.721 5.689 16.41 14.411 17.174z" fill="url(#SVGID_00000060734329082362569770000014608944307120242105_)"/></g></g><g><path d="m305.783 359.567c-5.13-10.103-13.601-18.224-23.963-22.901-1.148-.518-1.148-2.161 0-2.679 10.361-4.678 18.832-12.798 23.963-22.901.546-1.075 2.078-1.075 2.625 0 5.13 10.103 13.601 18.224 23.963 22.901 1.148.518 1.148 2.161 0 2.679-10.361 4.678-18.832 12.798-23.963 22.901-.547 1.076-2.079 1.076-2.625 0z" fill="url(#SVGID_00000034075033117956342340000006849913154249107623_)"/></g><g><path d="m200.786 481.892c-10.772-3.516-22.504-3.268-33.138.751-1.178.445-2.34-.716-1.894-1.894 4.019-10.634 4.267-22.366.751-33.138-.374-1.147.709-2.23 1.856-1.856 10.772 3.517 22.504 3.268 33.138-.751 1.178-.445 2.34.716 1.894 1.894-4.019 10.634-4.267 22.366-.751 33.138.374 1.146-.71 2.23-1.856 1.856z" fill="url(#SVGID_00000075851348115416350170000006652347000407745701_)"/></g><g><path d="m80.101 388.628c-5.13-10.103-13.601-18.224-23.963-22.901-1.148-.518-1.148-2.161 0-2.679 10.361-4.678 18.832-12.798 23.963-22.901.546-1.075 2.078-1.075 2.625 0 5.13 10.103 13.601 18.224 23.963 22.901 1.148.518 1.148 2.161 0 2.679-10.361 4.678-18.832 12.798-23.963 22.901-.547 1.075-2.079 1.075-2.625 0z" fill="url(#SVGID_00000158720705729213621230000013131814273813339326_)"/></g><g><path d="m447.362 465.135c-10.103 5.13-18.224 13.601-22.901 23.963-.518 1.148-2.161 1.148-2.679 0-4.678-10.361-12.798-18.832-22.901-23.963-1.075-.546-1.075-2.078 0-2.625 10.103-5.13 18.224-13.601 22.901-23.963.518-1.148 2.161-1.148 2.679 0 4.678 10.361 12.798 18.832 22.901 23.963 1.075.547 1.075 2.079 0 2.625z" fill="url(#SVGID_00000103248989830879275980000017594239701064470144_)"/></g><g><path d="m275.897 68.801c-10.103 5.13-18.224 13.601-22.901 23.963-.518 1.148-2.161 1.148-2.679 0-4.678-10.361-12.798-18.832-22.901-23.963-1.075-.546-1.075-2.078 0-2.625 10.103-5.13 18.224-13.601 22.901-23.963.518-1.148 2.161-1.148 2.679 0 4.678 10.361 12.798 18.832 22.901 23.963 1.076.546 1.076 2.079 0 2.625z" fill="url(#SVGID_00000108989039017555414310000000769647383522843321_)"/></g><g><g><path d="m75.755 130.587h-16.952c-2.678 0-4.849-2.171-4.849-4.849v-23.159c0-9.908-3.858-19.223-10.864-26.229-12.04-12.04-18.671-28.047-18.671-45.074v-25.232c0-2.678 2.171-4.849 4.849-4.849h16.952c2.678 0 4.849 2.171 4.849 4.849v25.232c0 9.908 3.858 19.223 10.864 26.228 12.04 12.04 18.67 28.048 18.67 45.074v23.159c.002 2.679-2.17 4.85-4.848 4.85z" fill="url(#SVGID_00000117657120538405748980000006077929621651332537_)"/></g><path d="m43.089 76.35c7.006 7.006 10.864 16.321 10.864 26.229v23.159c0 2.678 2.171 4.849 4.849 4.849h16.953c2.678 0 4.849-2.171 4.849-4.849 0-7.602-3.02-14.892-8.395-20.267z" fill="url(#SVGID_00000134216085059389484930000014141561090066967436_)"/><path d="m43.089 76.35c7.006 7.006 10.864 16.321 10.864 26.229v23.159c0 2.678 2.171 4.849 4.849 4.849h16.953c2.678 0 4.849-2.171 4.849-4.849 0-7.602-3.02-14.892-8.395-20.267z" fill="url(#SVGID_00000000921426403157647130000017353672958185863080_)"/><path d="m80.605 125.738c0-7.602-3.02-14.892-8.395-20.267l-29.121-29.121" fill="url(#SVGID_00000134947564428716947740000013076303196503840905_)"/><path d="m61.934 57.504c-7.006-7.005-10.864-16.32-10.864-26.228v-25.232c0-2.678-2.171-4.849-4.849-4.849h-16.953c-2.678 0-4.849 2.171-4.849 4.849v4.151c0 6.271 2.491 12.285 6.925 16.719z" fill="url(#SVGID_00000011716947372411504390000010072655988336878505_)"/></g><g><g><path d="m503.36 107.331-15.51 15.51c-2.45 2.45-6.423 2.45-8.873 0l-21.188-21.188c-9.065-9.065-21.117-14.057-33.936-14.057-22.031 0-42.742-8.579-58.32-24.157l-23.084-23.084c-2.45-2.45-2.45-6.423 0-8.873l15.51-15.51c2.45-2.45 6.423-2.45 8.873 0l23.084 23.084c9.065 9.065 21.117 14.057 33.936 14.057 22.031 0 42.742 8.579 58.32 24.157l21.188 21.188c2.451 2.45 2.451 6.423 0 8.873z" fill="url(#SVGID_00000103242388418228290590000002886212339252235653_)"/></g><path d="m423.852 87.596c12.82 0 24.872 4.992 33.936 14.057l21.188 21.188c2.45 2.45 6.423 2.45 8.873 0l15.51-15.51c2.45-2.45 2.45-6.423 0-8.873-6.955-6.955-16.387-10.862-26.223-10.862z" fill="url(#SVGID_00000052072284170812661540000007183834563152802950_)"/><path d="m423.852 87.596c12.82 0 24.872 4.992 33.936 14.057l21.188 21.188c2.45 2.45 6.423 2.45 8.873 0l15.51-15.51c2.45-2.45 2.45-6.423 0-8.873-6.955-6.955-16.387-10.862-26.223-10.862z" fill="url(#SVGID_00000085941407506127641420000015022199240480130988_)"/><path d="m503.36 98.458c-6.955-6.955-16.387-10.862-26.223-10.862h-53.285" fill="url(#SVGID_00000158720256870438882980000002118527410277678256_)"/><path d="m423.852 53.113c-12.819 0-24.872-4.992-33.936-14.057l-23.084-23.084c-2.45-2.45-6.423-2.45-8.873 0l-15.51 15.51c-2.45 2.45-2.45 6.423 0 8.873l3.797 3.797c5.737 5.737 13.518 8.96 21.632 8.96z" fill="url(#SVGID_00000110448011588375280300000013785657090427043974_)"/></g><g><path d="m144.259 387.543-7.246-7.246c-2.547-2.547-6.675-2.547-9.222 0l-16.073 16.073c-2.547 2.547-2.547 6.675 0 9.222l6.324 6.324c21.901 21.901 57.409 21.901 79.31 0l6.324-6.324c2.547-2.547 2.547-6.675 0-9.222l-16.073-16.073c-2.547-2.547-6.675-2.547-9.222 0l-7.246 7.246c-7.422 7.422-19.454 7.422-26.876 0z" fill="url(#SVGID_00000159445748519975628400000013133195044778203575_)"/><path d="m197.352 411.916 6.324-6.324c2.547-2.547 2.547-6.676 0-9.222l-16.073-16.073c-2.547-2.547-6.675-2.547-9.222 0l-7.246 7.246c-7.422 7.422-19.454 7.422-26.876 0l24.296 24.296c7.884 7.884 20.731 8.083 28.645.228.051-.05.101-.101.152-.151z" fill="url(#SVGID_00000114775138036989374720000003260530572456768684_)"/></g><g><path d="m263.039 266.338h10.247c3.601 0 6.521-2.92 6.521-6.521v-22.73c0-3.601-2.92-6.521-6.521-6.521h-8.943c-30.972 0-56.081 25.108-56.081 56.081v8.943c0 3.601 2.92 6.521 6.521 6.521h22.73c3.601 0 6.521-2.92 6.521-6.521v-10.247c0-10.497 8.509-19.005 19.005-19.005z" fill="url(#SVGID_00000155145743467647970340000005207083000602234536_)"/><path d="m208.262 286.646v8.943c0 3.601 2.92 6.521 6.521 6.521h22.73c3.601 0 6.521-2.92 6.521-6.521v-10.247c0-10.496 8.508-19.004 19.004-19.004h-34.36c-11.15 0-20.374 8.944-20.417 20.093.001.072.001.144.001.215z" fill="url(#SVGID_00000039122582369412586580000009316748222662563758_)"/></g><g><path d="m349.705 440.525v10.247c0 3.601 2.92 6.521 6.521 6.521h22.73c3.601 0 6.521-2.92 6.521-6.521v-8.943c0-30.972-25.108-56.081-56.081-56.081h-8.943c-3.601 0-6.521 2.92-6.521 6.521v22.731c0 3.601 2.92 6.521 6.521 6.521h10.247c10.496 0 19.005 8.509 19.005 19.004z" fill="url(#SVGID_00000121254301925507974050000017503703150466541488_)"/><path d="m329.396 385.749h-8.943c-3.601 0-6.521 2.92-6.521 6.521v22.73c0 3.601 2.92 6.521 6.521 6.521h10.247c10.496 0 19.004 8.508 19.004 19.004v-34.36c0-11.15-8.944-20.374-20.093-20.417-.071.001-.143.001-.215.001z" fill="url(#SVGID_00000065043394447034610510000006724972325619495323_)"/></g><g><g><path d="m123.628 176.856c6.466-.451 9.699-.663 16.167-1.059 1.652-.101 2.951.472 3.889 1.716.938 1.245 1.455 2.71 1.554 4.392.082 1.402-.231 2.81-.936 4.221-.706 1.413-1.951 2.173-3.734 2.282-6.425.393-9.637.604-16.06 1.052.498 7.143.748 10.714 1.246 17.857 11.366-.793 17.052-1.147 28.426-1.767 1.626-.089 2.905.566 3.827 1.956.923 1.392 1.434 3.071 1.536 5.034.087 1.683-.218 3.298-.911 4.844-.695 1.549-1.918 2.368-3.672 2.464-12.499.726-24.979 1.533-37.467 2.423-1.824.136-3.502-.157-5.041-.883s-2.376-1.927-2.508-3.606c-1.749-22.218-3.497-44.437-5.246-66.655-.132-1.68.534-3 2.001-3.958 1.467-.959 3.151-1.51 5.051-1.652 12.998-.973 26.006-1.814 39.02-2.523 1.826-.1 3.183.585 4.066 2.05.882 1.466 1.366 3.039 1.453 4.721.102 1.963-.247 3.687-1.043 5.168-.797 1.483-2.029 2.268-3.697 2.359-11.668.636-17.501.998-29.16 1.812.496 7.101.744 10.651 1.239 17.752z" fill="url(#SVGID_00000022552245335173659720000005497150513594915218_)"/><path d="m158.517 150.494c-.175-.552-.267-.935-.278-1.145-.05-.98.25-1.892.903-2.733.653-.84 1.513-1.587 2.579-2.237 1.065-.648 2.231-1.179 3.494-1.59 1.262-.41 2.48-.643 3.65-.696 1.388-.063 2.589.114 3.595.527s1.715 1.175 2.128 2.279c5.857 17.757 11.603 35.552 17.186 53.398 4.33-18.18 8.774-36.333 13.382-54.445.334-1.131.991-1.938 1.967-2.42.976-.481 2.159-.739 3.55-.772 1.169-.027 2.4.121 3.688.444 1.286.323 2.486.773 3.594 1.347s2.018 1.261 2.726 2.055c.707.793 1.071 1.683 1.088 2.665.004.211-.064.599-.199 1.162-6.346 21.509-12.514 43.063-18.505 64.674-.513 1.841-1.792 3.247-3.836 4.221-2.046.974-4.295 1.504-6.751 1.588-2.459.084-4.74-.291-6.846-1.123-2.108-.832-3.481-2.147-4.117-3.949-7.492-21.149-15.157-42.228-22.998-63.25z" fill="url(#SVGID_00000062906451981536076160000002072445471477035653_)"/><path d="m245.319 172.272c6.477-.036 9.716-.041 16.193-.022 1.655.005 2.913.66 3.769 1.962.856 1.303 1.278 2.797 1.269 4.482-.008 1.405-.41 2.789-1.204 4.152-.795 1.365-2.085 2.043-3.871 2.038-6.434-.019-9.652-.014-16.086.022.04 7.16.06 10.74.101 17.9 11.387-.064 17.081-.053 28.467.057 1.628.016 2.861.751 3.693 2.197.832 1.448 1.234 3.157 1.21 5.121-.021 1.685-.428 3.277-1.219 4.776-.792 1.502-2.065 2.241-3.821 2.224-12.513-.076-25.013-.07-37.526.019-1.828.019-3.483-.381-4.971-1.204s-2.246-2.075-2.27-3.759c-.324-22.285-.646-44.569-.968-66.854-.024-1.685.724-2.959 2.249-3.822 1.525-.864 3.239-1.306 5.142-1.326 13.027-.138 26.055-.145 39.081-.02 1.828.018 3.14.789 3.925 2.306.786 1.518 1.168 3.12 1.147 4.804-.024 1.966-.482 3.664-1.371 5.091-.89 1.429-2.169 2.134-3.839 2.118-11.681-.112-17.522-.124-29.203-.058.043 7.119.063 10.678.103 17.796z" fill="url(#SVGID_00000073708316706370203160000014322920093430608574_)"/><path d="m331.569 218.636c-1.896-.077-3.641-.425-5.236-1.049-1.595-.623-2.852-1.862-3.772-3.722-6.269-12.404-12.656-24.748-19.159-37.03-.298 11.93-.596 23.859-.894 35.789-.042 1.684-.937 2.924-2.679 3.726-1.742.801-3.631 1.18-5.668 1.138-2.039-.042-3.909-.498-5.617-1.371s-2.55-2.15-2.523-3.833c.359-22.284.718-44.568 1.078-66.852.028-1.754.943-3.022 2.749-3.798 1.806-.775 3.771-1.143 5.894-1.099 1.537.031 2.853.131 3.946.296 1.094.165 2.11.523 3.049 1.072.937.549 1.832 1.397 2.679 2.542s1.755 2.679 2.725 4.601c5.567 10.998 11.072 22.019 16.522 33.076.433-11.926.866-23.851 1.299-35.777.064-1.752 1.003-2.984 2.824-3.689 1.818-.704 3.792-1.014 5.913-.927s4.063.556 5.819 1.405c1.755.849 2.594 2.154 2.515 3.906-1.008 22.3-2.015 44.6-3.022 66.9-.076 1.683-.996 2.906-2.753 3.672-1.756.766-3.652 1.106-5.689 1.024z" fill="url(#SVGID_00000176761191164643799690000011753119214687070636_)"/><path d="m402.565 145.69c1.825.139 3.082 1.013 3.763 2.613.682 1.602.954 3.28.816 5.029-.16 2.03-.735 3.744-1.72 5.146s-2.311 2.038-3.977 1.911c-6.001-.456-9.001-.673-15.004-1.082-1.295 19.014-2.591 38.028-3.886 57.043-.114 1.68-1.062 2.882-2.838 3.608s-3.68 1.023-5.714.893c-2.036-.13-3.886-.666-5.555-1.611-1.671-.946-2.456-2.257-2.356-3.938 1.127-19.025 2.254-38.05 3.38-57.075-6.006-.356-9.009-.522-15.017-.83-1.669-.086-2.9-.886-3.699-2.4-.799-1.515-1.151-3.289-1.052-5.323.085-1.752.566-3.381 1.446-4.885.879-1.501 2.235-2.209 4.062-2.115 15.795.863 31.572 1.868 47.351 3.016z" fill="url(#SVGID_00000102526900236452725860000004664039253593220224_)"/></g></g></g></svg>