<svg id="Capa_1" enable-background="new 0 0 512 512" height="512" viewBox="0 0 512 512" width="512" xmlns="http://www.w3.org/2000/svg"><g><g><path d="m487.461 120.032v34.633h-462.932v-34.633c0-11.569 6.964-21.984 17.647-26.414l205.191-85.021c5.522-2.287 11.734-2.287 17.256 0l205.192 85.021c10.682 4.43 17.646 14.845 17.646 26.414z" fill="#e1f0ff"/><g fill="#cae4f9"><path d="m487.461 120.036v34.633h-51.509v-34.633c0-11.569-6.964-21.984-17.647-26.414l-188.06-77.922 17.122-7.098c5.522-2.287 11.734-2.287 17.256 0l205.192 85.021c10.682 4.429 17.646 14.844 17.646 26.413z"/><path d="m102.373 154.665h-30.734v-28.39c0-7.106 5.913-12.815 12.991-12.815l30.553.004z"/></g></g><g fill="#d9b1ee"><path d="m338.55 202.02h115.14v256.78h-115.14z"/><path d="m198.43 202.02h115.14v256.78h-115.14z"/><path d="m60.8 202.02h115.14v256.78h-115.14z"/></g><path d="m142.54 202.02h33.4v256.78h-33.4z" fill="#cb97e7"/><path d="m281.14 202.02h32.43v256.78h-32.43z" fill="#cb97e7"/><path d="m301.684 446.193-45.684 12.607-45.753-12.607-6.483-50.465 6.483-44.041c0-6.182 2.759-12.042 7.523-15.98l27.907-22.934s12.821-2.602 19.748 3.133l24.81 27.01 23.334 61.259z" fill="#9c9c9c"/><path d="m301.689 351.672 11.882 52.502-11.882 42.017-13.237 3.653-7.367-3.653v-94.519c0-6.171-2.761-12.022-7.52-15.968l-26.228-21.716c-.536-.443-1.082-.855-1.659-1.216 6.81-4.492 15.855-4.09 22.262 1.216l26.228 21.716c4.76 3.946 7.521 9.798 7.521 15.968z" fill="#838383"/><path d="m195.808 450.93-9.11 2.99-23.56-7.73v-226.05l23.56-9.75 10.08 4.17z" fill="#e1f0ff"/><path d="m210.248 220.14v226.05l-14.44 4.74-6.16-4.74v-226.05l7.13-5.58z" fill="#cae4f9"/><g><path d="m256 453.917c-4.267 0-7.726-3.459-7.726-7.726v-91.411c0-4.268 3.459-7.726 7.726-7.726 4.268 0 7.726 3.459 7.726 7.726v91.411c0 4.268-3.458 7.726-7.726 7.726z" fill="#838383"/></g><path d="m334.416 450.93-9.11 2.99-23.56-7.73v-226.05l23.56-9.75 10.08 4.17z" fill="#e1f0ff"/><path d="m348.856 220.14v226.05l-14.44 4.74-6.16-4.74v-226.05l7.13-5.58z" fill="#cae4f9"/><path d="m419.75 202.02h33.94v256.78h-33.94z" fill="#cb97e7"/><path d="m487.46 220.14v226.05l-14.44 4.74-9.11 2.99-23.56-7.73v-226.05l23.56-9.75 10.08 4.17z" fill="#e1f0ff"/><path d="m487.46 220.14v226.05l-14.44 4.74-6.16-4.74v-226.05l7.13-5.58z" fill="#cae4f9"/><path d="m57.201 450.93-9.11 2.99-23.56-7.73v-226.05l23.56-9.75 10.08 4.17z" fill="#e1f0ff"/><path d="m71.641 220.14v226.05l-14.44 4.74-6.16-4.74v-226.05l7.13-5.58z" fill="#cae4f9"/><g><path d="m466.857 174.985 12.836 22.582-12.836 22.582-85.731-.004-175.109-7.994-134.378 7.994h-47.11v-45.164z" fill="#9c9c9c"/><g fill="#838383"><path d="m466.857 174.985h20.604v45.164h-20.604z"/><path d="m71.639 174.981h309.487v45.164h-309.487z"/></g></g><path d="m512 153.77v21.428c0 3.75-3.049 6.799-6.799 6.799h-498.402c-3.75 0-6.799-3.049-6.799-6.799v-21.428c0-3.76 3.049-6.799 6.799-6.799h498.402c3.75 0 6.799 3.039 6.799 6.799z" fill="#4f66d0"/><path d="m512 153.775v21.428c0 3.75-3.049 6.799-6.799 6.799h-51.509c3.75 0 6.799-3.049 6.799-6.799v-21.428c0-3.76-3.049-6.799-6.799-6.799h51.509c3.75-.001 6.799 3.039 6.799 6.799z" fill="#314dc9"/><path d="m71.639 146.971h309.487v35.026h-309.487z" fill="#314dc9"/><path d="m396.812 250.535h-281.63c-7.074 0-12.809-5.735-12.809-12.809v-111.454c0-7.074 5.735-12.809 12.809-12.809h281.63c7.074 0 12.809 5.735 12.809 12.809v111.454c0 7.074-5.735 12.809-12.809 12.809z" fill="#4f66d0"/><path d="m409.621 126.269v111.455c0 7.077-5.738 12.815-12.805 12.815h-30.906c7.067 0 12.805-5.738 12.805-12.815v-111.455c0-7.067-5.738-12.805-12.805-12.805h30.905c7.068 0 12.806 5.738 12.806 12.805z" fill="#314dc9"/><path d="m368.317 250.533h-253.135c-7.074 0-12.809-5.735-12.809-12.809v-111.454c0-7.074 5.735-12.809 12.809-12.809h253.135c7.074 0 26.623 5.735 26.623 12.809v111.454c.001 7.074-19.548 12.809-26.623 12.809z" fill="#4f66d0"/><path d="m396.812 113.461h-28.495c7.074 0 12.809 5.735 12.809 12.809v111.454c0 7.074-5.735 12.809-12.809 12.809h28.495c7.074 0 12.809-5.735 12.809-12.809v-111.454c0-7.074-5.735-12.809-12.809-12.809z" fill="#314dc9"/><g><g fill="#e1f0ff"><path d="m205.055 174.27h-20.958c-4.267 0-7.726 3.459-7.726 7.726 0 4.268 3.459 7.726 7.726 7.726h12.476c-2.052 10.195-8.485 19.578-21.758 19.578-15.055 0-27.304-12.248-27.304-27.305 0-15.055 12.248-27.304 27.304-27.304 5.473 0 10.75 1.611 15.261 4.659 3.535 2.387 8.339 1.458 10.727-2.076 2.389-3.536 1.459-8.339-2.076-10.728-7.075-4.78-15.344-7.307-23.911-7.307-23.576 0-42.757 19.18-42.757 42.757s19.181 42.758 42.757 42.758c22.354 0 37.966-17.582 37.966-42.758 0-4.267-3.46-7.726-7.727-7.726z"/><path d="m374.645 139.763c-4.045-1.346-8.423.846-9.768 4.896l-17.168 51.68-18.018-51.906c-1.399-4.032-5.805-6.171-9.832-4.766-4.031 1.399-6.165 5.801-4.766 9.832l23.972 69.063c1.319 3.71 4.838 6.191 8.771 6.191.021 0 .043 0 .064-.001 3.958-.026 7.474-2.562 8.766-6.362l22.875-68.86c1.346-4.048-.847-8.422-4.896-9.767z"/><path d="m266.654 139.24c-23.576 0-42.757 19.18-42.757 42.757s19.181 42.758 42.757 42.758 42.757-19.181 42.757-42.758-19.181-42.757-42.757-42.757zm0 70.062c-15.056 0-27.304-12.248-27.304-27.305 0-15.055 12.248-27.304 27.304-27.304 15.055 0 27.304 12.248 27.304 27.304s-12.249 27.305-27.304 27.305z"/></g></g><g><path d="m243.529 84.927c-1.977 0-3.955-.755-5.463-2.263-3.018-3.018-3.018-7.909 0-10.928l24.937-24.937c3.018-3.017 7.909-3.015 10.928 0 3.017 3.018 3.017 7.909 0 10.928l-24.938 24.937c-1.51 1.509-3.487 2.263-5.464 2.263z" fill="#cae4f9"/></g><g><g><path d="m394.941 309.364c-4.268 0-7.726-3.459-7.726-7.726v-18.957c0-4.268 3.459-7.726 7.726-7.726s7.726 3.459 7.726 7.726v18.957c0 4.267-3.459 7.726-7.726 7.726z" fill="#cb97e7"/></g><g><path d="m394.941 362.506c-4.268 0-7.726-3.459-7.726-7.726v-18.957c0-4.268 3.459-7.726 7.726-7.726s7.726 3.459 7.726 7.726v18.957c0 4.267-3.459 7.726-7.726 7.726z" fill="#cb97e7"/></g><g><path d="m394.941 415.649c-4.268 0-7.726-3.459-7.726-7.726v-18.958c0-4.268 3.459-7.726 7.726-7.726s7.726 3.459 7.726 7.726v18.958c0 4.267-3.459 7.726-7.726 7.726z" fill="#cb97e7"/></g></g><g><g><path d="m118.371 309.364c-4.267 0-7.726-3.459-7.726-7.726v-18.957c0-4.268 3.459-7.726 7.726-7.726s7.726 3.459 7.726 7.726v18.957c0 4.267-3.459 7.726-7.726 7.726z" fill="#cb97e7"/></g><g><path d="m118.371 362.506c-4.267 0-7.726-3.459-7.726-7.726v-18.957c0-4.268 3.459-7.726 7.726-7.726s7.726 3.459 7.726 7.726v18.957c0 4.267-3.459 7.726-7.726 7.726z" fill="#cb97e7"/></g><g><path d="m118.371 415.649c-4.267 0-7.726-3.459-7.726-7.726v-18.958c0-4.268 3.459-7.726 7.726-7.726s7.726 3.459 7.726 7.726v18.958c0 4.267-3.459 7.726-7.726 7.726z" fill="#cb97e7"/></g></g><path d="m24.532 446.193h462.93v29.462l-235.484 17.604-227.446-17.604z" fill="#4f66d0"/><path d="m487.461 446.192v29.463l-47.107 3.853v-33.316z" fill="#314dc9"/><path d="m6.804 475.655h498.392c3.758 0 6.804 3.046 6.804 6.804v15.854c0 3.758-3.046 6.804-6.804 6.804h-498.392c-3.758 0-6.804-3.046-6.804-6.804v-15.854c0-3.757 3.046-6.804 6.804-6.804z" fill="#e1f0ff"/><path d="m512 482.464v15.844c0 3.76-3.049 6.81-6.799 6.81h-51.509c3.75 0 6.799-3.049 6.799-6.81v-15.844c0-3.76-3.049-6.809-6.799-6.809h51.509c3.75 0 6.799 3.049 6.799 6.809z" fill="#cae4f9"/></g></svg>