<?xml version="1.0" encoding="utf-8"?>
<!-- Generator: Adobe Illustrator 24.0.1, SVG Export Plug-In . SVG Version: 6.00 Build 0)  -->
<svg version="1.1" id="Layer_1" xmlns="http://www.w3.org/2000/svg" xmlns:xlink="http://www.w3.org/1999/xlink" x="0px" y="0px"
	 viewBox="0 0 389 126" style="enable-background:new 0 0 389 126;" xml:space="preserve">
<style type="text/css">
	.st0{fill:#1A325A;}
	.st1{fill:#1B335A;}
	.st2{fill:#1B335B;}
	.st3{fill:none;}
</style>
<path class="st0" d="M95.5,59.3c1.4,0.7,2.7,1.2,4,1.9c8.1,4.4,12.9,11.1,13.6,20.4c0.8,10.8-2.1,20.3-11.1,27.1
	c-5.3,4.1-11.6,5.9-18.2,6.8c-3.3,0.5-6.5,0.5-9.8,0.5c-17.8,0-35.7,0-53.5,0c-1.9,0-2.6-0.4-2.5-2.4c0.1-34.2,0.1-68.4,0-102.6
	c0-2,0.4-2.5,2.5-2.5c18.9,0.1,37.8,0,56.6,0.1c9.4,0,18.2,2.2,25.3,9c10.8,10.4,10.6,34-6.1,41.4C96,58.9,95.8,59.1,95.5,59.3z
	 M59.5,93.8c3.3,0,6.6,0.1,9.8,0c4.2-0.2,8.3-1,10.6-5.2c4.4-8-0.4-16.6-9.6-16.8c-7-0.1-14,0-21.1-0.1c-1.3,0-1.8,0.2-1.8,1.7
	c0.1,6.2,0.1,12.4,0,18.7c0,1.6,0.6,1.8,1.9,1.8C52.8,93.8,56.2,93.8,59.5,93.8z M59.8,49.7c3.6-0.2,7.9,0.4,12.1-0.4
	c2.6-0.5,4.9-1.7,6.1-4.2c2.3-5.2,1.4-13.5-7.7-14.2c-7.1-0.5-14.2-0.1-21.3-0.2c-1.3,0-1.4,0.6-1.4,1.6c0,5.3,0.1,10.5,0,15.8
	c0,1.3,0.4,1.6,1.6,1.6C52.5,49.7,55.8,49.7,59.8,49.7z"/>
<path class="st1" d="M194.3,42.8c0.8,10.9,0.8,21.9,0.8,32.8c0.1,12.9,0,25.7,0.1,38.6c0,1.6-0.6,1.8-1.9,1.8
	c-7.9-0.1-15.8-0.1-23.8,0c-1.6,0-2-0.5-2-2c0-33.7,0-67.5,0.1-101.2c0-4.3,0-4.3,4.2-4.3c9.6,0,19.2,0.1,28.8,0
	c1.7,0,2.6,0.5,3.5,2c11,20.9,22.5,41.5,32.1,63.1c0.1,0.3,0.4,0.6,0.5,0.9c0-3.2,0-6.4,0-9.6c-0.1-18.1-0.2-36.3-0.3-54.4
	c0-1.6,0.5-2,2-2c7.8,0.1,15.7,0.1,23.5,0c1.6,0,2,0.4,2,2c0,34.5,0,69.1,0,103.6c0,1.6-0.5,2-2,2c-10-0.1-20-0.1-30,0
	c-1.3,0-1.9-0.5-2.5-1.6c-10.2-21-20.6-42-30.8-63c-1.4-2.8-2.5-5.8-3.7-8.7C194.7,42.7,194.5,42.7,194.3,42.8z"/>
<path class="st0" d="M279,62.2c0-17.2,0-34.4,0-51.5c0-1.8,0.4-2.3,2.2-2.3c15.9,0.1,31.8,0,47.7,0.1c24.5,0.1,43.6,16.4,47.5,40.6
	c2.4,15.2,0.9,29.9-7.1,43.3c-9.1,15.3-23,23-40.6,23.5c-15.8,0.5-31.7,0.1-47.5,0.1c-1.8,0-2.3-0.4-2.3-2.2
	c0.1-8.6,0.1-17.3,0.1-25.9C279,79.3,279,70.8,279,62.2z M309.6,62c0,4.6,0,9.3,0,13.9c0,4.6,0,9.3,0,13.9c0,1.5,0.2,2.1,1.9,2
	c3.8-0.1,7.5,0,11.3,0c10.4-0.1,17.5-5.1,20.4-14.9c2.9-9.8,3.1-19.7,0.2-29.5c-2.5-8.5-8.1-13.5-17-14.7c-4.9-0.6-9.9-0.1-14.9-0.3
	c-1.7-0.1-1.9,0.5-1.9,2C309.6,43.7,309.6,52.9,309.6,62z"/>
<path class="st2" d="M122,62c0-17.1,0-34.2,0-51.3c0-1.8,0.5-2.3,2.3-2.2c8.8,0.1,17.6,0.1,26.4,0c1.6,0,2,0.4,2,2
	c0,34.5,0,69.1,0,103.6c0,1.5-0.4,2-2,2c-8.8-0.1-17.6-0.1-26.4,0c-1.8,0-2.3-0.4-2.3-2.2C122,96.5,122,79.2,122,62z"/>
<rect x="-213.7" y="89.7" class="st3" width="841.6" height="595"/>
</svg>
