<svg id="Layer_1" height="512" viewBox="0 0 64 64" width="512" xmlns="http://www.w3.org/2000/svg"><g><g><g fill="none" stroke="#231f20" stroke-linecap="round" stroke-linejoin="round" stroke-width="1.5"><path d="m25.4 7.5c-.4.3-.7.7-1.1 1.1"/><path d="m22.7 10.5c-.7 1-1.3 2.2-1.8 3.4" stroke-dasharray="2.545 2.545"/><path d="m20.5 15.1c-.2.5-.3 1-.4 1.4"/></g></g><g style="fill:none;stroke:#231f20;stroke-linecap:round;stroke-linejoin:round;stroke-miterlimit:10;stroke-width:1.5"><path d="m37.2 2.9c-4.6 0-8.7 1.7-11.8 4.6"/><path d="m50.7 9.2c-2.4-2.9-5.7-5-9.5-5.8" stroke-dasharray="3"/><path d="m54.8 20.5c0-4.3-1.5-8.2-4.1-11.3"/><path d="m24.2 32.3c2.4 2.6 5.5 4.5 9 5.3" stroke-dasharray="3"/><path d="m19.6 20.5c0 4.6 1.7 8.7 4.6 11.8"/><path d="m49.8 32.8c2.2-2.3 3.8-5.1 4.5-8.3" stroke-dasharray="3"/><path d="m37.2 38.1c4.9 0 9.4-2 12.6-5.3"/><path d="m52.7 18.7 2.1 2.1 2-2.1"/><path d="m21.6 22.5-2-2-2 2"/><path d="m39.1 36.2-2.1 2 2.1 2.1"/><path d="m35.3 5.1 2-2.1-2-2"/><circle cx="37.2" cy="20.6" r="12.5"/><path d="m49.6 20.6c0 3.2-1.2 6.1-3.2 8.4-2.3 2.5-5.6 4.1-9.2 4.1-3.7 0-7-1.6-9.2-4.1-2-2.2-3.2-5.1-3.2-8.4 0-6.9 5.6-12.5 12.5-12.5s12.3 5.6 12.3 12.5z"/><circle cx="37.2" cy="15.8" r="4"/><path d="m29.4 26.2c1.8-2.4 4.6-3.9 7.8-3.9s6 1.5 7.8 3.9"/><path d="m30.7 50.9 11.3 1.3c1.4.2 2.7-.8 2.8-2.2.2-1.4-.8-2.7-2.2-2.8 0 0-9.3-1.2-12.3-2.1-3.1-.8-8.7-4.2-11.9-4.6-.6-.1-1.5-.1-2.5-.2"/><path d="m47.7 47.8 9.5-7c1.3-1 3.1-.7 4.2.6 1 1.3.8 3.2-.5 4.2 0 0-15.6 16.1-22.6 17.3-5.7 1-16.6-5.3-22.2-7"/><path d="m10.1 60.6h-5.3c-1.5 0-2.7-1.2-2.7-2.7v-20.7c0-1.5 1.2-2.7 2.7-2.7h5.3c1.5 0 2.7 1.2 2.7 2.7v20.6c0 1.6-1.2 2.8-2.7 2.8z"/></g></g></svg>