<?xml version="1.0" encoding="UTF-8"?>
<svg xmlns="http://www.w3.org/2000/svg" xmlns:xlink="http://www.w3.org/1999/xlink" version="1.1" id="Capa_1" x="0px" y="0px" viewBox="0 0 512 512" style="enable-background:new 0 0 512 512;" xml:space="preserve" width="512" height="512">
<g>
	<path style="fill:none;stroke:#000000;stroke-width:15;stroke-linecap:round;stroke-linejoin:round;stroke-miterlimit:10;" d="&#10;&#9;&#9;M235.8,302.48h-28.28c-17.85,0-32.32,14.46-32.32,32.32v38.36h63.3"/>
	<path style="fill:none;stroke:#000000;stroke-width:15;stroke-linecap:round;stroke-linejoin:round;stroke-miterlimit:10;" d="&#10;&#9;&#9;M276.2,302.48h28.28c17.85,0,32.32,14.46,32.32,32.32v38.36h-63.3"/>
	<path style="fill:none;stroke:#000000;stroke-width:15;stroke-linecap:round;stroke-linejoin:round;stroke-miterlimit:10;" d="&#10;&#9;&#9;M276.2,287.649v14.827c0,11.15-9.04,20.2-20.2,20.2s-20.2-9.05-20.2-20.2v-14.827"/>
	<path style="fill:none;stroke:#000000;stroke-width:15;stroke-linecap:round;stroke-linejoin:round;stroke-miterlimit:10;" d="&#10;&#9;&#9;M301.45,246.921c0,25.101-20.349,45.45-45.45,45.45h0c-25.101,0-45.45-20.349-45.45-45.45"/>
	<path style="fill:none;stroke:#000000;stroke-width:15;stroke-linecap:round;stroke-linejoin:round;stroke-miterlimit:10;" d="&#10;&#9;&#9;M311.55,246.921h-10.1v-32.32h10.1c8.925,0,16.16,7.235,16.16,16.16v0C327.71,239.686,320.475,246.921,311.55,246.921z"/>
	<path style="fill:none;stroke:#000000;stroke-width:15;stroke-linecap:round;stroke-linejoin:round;stroke-miterlimit:10;" d="&#10;&#9;&#9;M200.45,246.921h10.1v-32.32h-10.1c-8.925,0-16.16,7.235-16.16,16.16v0C184.29,239.686,191.525,246.921,200.45,246.921z"/>
	<path style="fill:none;stroke:#000000;stroke-width:15;stroke-linecap:round;stroke-linejoin:round;stroke-miterlimit:10;" d="&#10;&#9;&#9;M311.55,214.601v-18.215c0-30.708-24.916-55.591-55.624-55.55h0c-30.651,0.041-55.477,24.899-55.477,55.55v18.215h10.1&#10;&#9;&#9;l17.426,4.471c13.04,3.345,26.889-0.024,36.935-8.986l10.135-9.042c2.143-1.912,5.335-2.057,7.642-0.347l18.763,13.904H311.55z"/>
	
		<line style="fill:none;stroke:#000000;stroke-width:15;stroke-linecap:round;stroke-linejoin:round;stroke-miterlimit:10;" x1="304.48" y1="373.156" x2="304.48" y2="350.951"/>
	
		<line style="fill:none;stroke:#000000;stroke-width:15;stroke-linecap:round;stroke-linejoin:round;stroke-miterlimit:10;" x1="207.52" y1="373.156" x2="207.52" y2="350.951"/>
	<path style="fill:none;stroke:#000000;stroke-width:15;stroke-linecap:round;stroke-linejoin:round;stroke-miterlimit:10;" d="&#10;&#9;&#9;M289.59,77.14l1.36-1.36c5.92-5.91,5.92-15.51,0-21.42c-5.4-5.41-13.86-5.86-19.8-1.39V22.65c0-8.37-6.78-15.15-15.15-15.15&#10;&#9;&#9;c-4.18,0-7.97,1.7-10.71,4.44c-2.75,2.74-4.44,6.52-4.44,10.71v30.32c-5.94-4.47-14.4-4.02-19.8,1.39&#10;&#9;&#9;c-2.96,2.96-4.44,6.83-4.44,10.71s1.48,7.76,4.44,10.71l24.24,24.24c5.28,5.28,13.49,5.85,19.4,1.7"/>
	<path style="fill:none;stroke:#000000;stroke-width:15;stroke-linecap:round;stroke-linejoin:round;stroke-miterlimit:10;" d="&#10;&#9;&#9;M75.783,221.047c-5.916-5.917-15.509-5.917-21.425,0c-5.404,5.404-5.856,13.867-1.387,19.803l-30.321,0&#10;&#9;&#9;c-8.367,0-15.15,6.783-15.15,15.15v0c0,8.367,6.783,15.15,15.15,15.15h30.321c-4.469,5.935-4.017,14.398,1.387,19.803&#10;&#9;&#9;c2.958,2.958,6.835,4.438,10.713,4.438s7.755-1.479,10.713-4.438l24.24-24.24c5.916-5.916,5.916-15.509,0-21.425L75.783,221.047z"/>
	<path style="fill:none;stroke:#000000;stroke-width:15;stroke-linecap:round;stroke-linejoin:round;stroke-miterlimit:10;" d="&#10;&#9;&#9;M221.047,436.217c-5.917,5.916-5.917,15.509,0,21.425c5.404,5.404,13.867,5.856,19.803,1.387l0,30.321&#10;&#9;&#9;c0,8.367,6.783,15.15,15.15,15.15h0c8.367,0,15.15-6.783,15.15-15.15v-30.321c5.935,4.469,14.398,4.017,19.803-1.387&#10;&#9;&#9;c2.958-2.958,4.438-6.835,4.438-10.713c0-3.877-1.479-7.755-4.438-10.713l-24.24-24.24c-5.916-5.916-15.509-5.916-21.425,0&#10;&#9;&#9;L221.047,436.217z"/>
	<path style="fill:none;stroke:#000000;stroke-width:15;stroke-linecap:round;stroke-linejoin:round;stroke-miterlimit:10;" d="&#10;&#9;&#9;M436.217,290.953c5.916,5.917,15.509,5.917,21.425,0c5.404-5.404,5.856-13.867,1.387-19.803h30.321&#10;&#9;&#9;c8.367,0,15.15-6.783,15.15-15.15v0c0-8.367-6.783-15.15-15.15-15.15l-30.321,0c4.469-5.935,4.017-14.398-1.387-19.803&#10;&#9;&#9;c-2.958-2.959-6.835-4.438-10.713-4.438c-3.877,0-7.755,1.479-10.713,4.438l-24.24,24.24c-5.916,5.916-5.916,15.509,0,21.425&#10;&#9;&#9;L436.217,290.953z"/>
	<path style="fill:none;stroke:#000000;stroke-width:15;stroke-linecap:round;stroke-linejoin:round;stroke-miterlimit:10;" d="&#10;&#9;&#9;M413.835,147.595c8.367,0.001,15.151-6.783,15.15-15.15c0-7.643-5.665-13.946-13.022-14.983l21.44-21.44&#10;&#9;&#9;c5.916-5.916,5.916-15.509,0-21.425v0c-5.916-5.916-15.509-5.916-21.425,0l-21.44,21.44c-1.037-7.357-7.34-13.022-14.983-13.022&#10;&#9;&#9;c-4.184,0-7.971,1.695-10.713,4.437c-2.742,2.742-4.438,6.529-4.437,10.713v34.281c0,8.367,6.783,15.15,15.15,15.15&#10;&#9;&#9;L413.835,147.595z"/>
	<path style="fill:none;stroke:#000000;stroke-width:15;stroke-linecap:round;stroke-linejoin:round;stroke-miterlimit:10;" d="&#10;&#9;&#9;M98.165,147.595c-8.367,0.001-15.151-6.783-15.15-15.15c0-7.643,5.665-13.946,13.022-14.983l-21.44-21.44&#10;&#9;&#9;c-5.916-5.916-5.916-15.509,0-21.425l0,0c5.916-5.916,15.509-5.916,21.425,0l21.44,21.44c1.037-7.357,7.34-13.022,14.983-13.022&#10;&#9;&#9;c4.184,0,7.971,1.695,10.713,4.437c2.742,2.742,4.437,6.529,4.437,10.713v34.281c0,8.367-6.783,15.15-15.15,15.15L98.165,147.595z"/>
	<path style="fill:none;stroke:#000000;stroke-width:15;stroke-linecap:round;stroke-linejoin:round;stroke-miterlimit:10;" d="&#10;&#9;&#9;M413.835,364.405c8.367-0.001,15.151,6.783,15.15,15.15c0,7.643-5.665,13.946-13.022,14.983l21.44,21.44&#10;&#9;&#9;c5.916,5.916,5.916,15.509,0,21.425l0,0c-5.916,5.916-15.509,5.916-21.425,0l-21.44-21.44c-1.037,7.357-7.34,13.022-14.983,13.022&#10;&#9;&#9;c-4.184,0-7.971-1.695-10.713-4.437c-2.742-2.742-4.438-6.529-4.437-10.713v-34.281c0-8.367,6.783-15.15,15.15-15.15&#10;&#9;&#9;L413.835,364.405z"/>
	<path style="fill:none;stroke:#000000;stroke-width:15;stroke-linecap:round;stroke-linejoin:round;stroke-miterlimit:10;" d="&#10;&#9;&#9;M132.42,364.4h0.03c8.36,0,15.15,6.79,15.15,15.15v34.29c0,4.18-1.7,7.97-4.44,10.71c-2.74,2.74-6.53,4.44-10.71,4.44&#10;&#9;&#9;c-7.65,0-13.95-5.67-14.99-13.03L96.02,437.4c-2.96,2.96-6.83,4.44-10.71,4.44c-3.88,0-7.75-1.48-10.71-4.44&#10;&#9;&#9;c-5.92-5.91-5.92-15.51,0-21.42l21.44-21.44c-7.36-1.04-13.03-7.34-13.03-14.99c0-8.11,6.39-14.75,14.41-15.13"/>
</g>















</svg>
