<svg height="512" viewBox="0 0 128 128" width="512" xmlns="http://www.w3.org/2000/svg"><g id="Waiter"><path d="m99 53.897h-20q-.03956 0-.0791.00147c-15.0957.60053-26.9209 13.6069-26.9209 29.61081v.38772h14.98926a2.0001 2.0001 0 0 1 2 2v40h55.01074a2.0001 2.0001 0 0 0 2-2v-40.38772c0-16.00391-11.8252-29.01028-27-29.61228z" fill="#455a64"/><path d="m98.05 60.913-9.05 21.73-9.05-21.73z" fill="#e8e5d1"/><path d="m98.81836 59.06689a1.99956 1.99956 0 0 0 -2.61524 1.07711l-7.20312 17.29692-7.20312-17.29692a2.00041 2.00041 0 0 0 -3.69336 1.53809l8.89648 21.36191v42.853h4v-42.853l8.89648-21.36182a2.00032 2.00032 0 0 0 -1.07812-2.61529z" fill="#2f444c"/><path d="m89 2.103a23.02588 23.02588 0 0 0 -23 23 23 23 0 1 0 46 0 23.02588 23.02588 0 0 0 -23-23z" fill="#f0beb4"/><path d="m111.58612 29.37885a23.00224 23.00224 0 1 0 -45.39012-1.3686h2.804a2.1642 2.1642 0 0 0 .30762-.02392c4.665-.68848 9.87207-1.45752 13.13379-6.32764a35.1895 35.1895 0 0 0 22.58789 8.52393 25.73118 25.73118 0 0 0 6.55682-.80377z" fill="#8d6e63"/><path d="m100.26758 49.55615a1.98925 1.98925 0 0 0 -1.66016-.41406l-9.60742 1.92151-9.60742-1.92151a2 2 0 0 0 -2.39258 1.96091v10a1.99927 1.99927 0 0 0 2.39258 1.961l9.60742-1.92154 9.60742 1.9215a2 2 0 0 0 2.39258-1.96096v-10a1.99932 1.99932 0 0 0 -.73242-1.54685z" fill="#e53935"/><path d="m79.39258 49.14209a2 2 0 0 0 -2.39258 1.96091v10a1.99927 1.99927 0 0 0 2.39258 1.961l9.60742-1.92154v-10.07886z" fill="#c62828"/><path d="m111.01056 125.897h12.98944a2.0001 2.0001 0 0 0 2-2v-40.38772a29.76263 29.76263 0 0 0 -14.98944-26.26081z" fill="#e8e5d1"/><path d="m67 57.23816a29.77972 29.77972 0 0 0 -15 26.27112v.38772h14.98926l.01074.00107z" fill="#e8e5d1"/><path d="m19.5 90.897h-4v-11.5278a2.00488 2.00488 0 0 0 -4 0v11.5278h-4a2 2 0 0 0 0 4h12a2 2 0 0 0 0-4z" fill="#80cbc4"/><path d="m23 55.897h-19a2.0001 2.0001 0 0 0 -2 2v14a9.01047 9.01047 0 0 0 9 9h5a9.01047 9.01047 0 0 0 9-9v-14a2.0001 2.0001 0 0 0 -2-2z" fill="#b2dfdb"/><path d="m57 96.897h-23a2.0001 2.0001 0 0 0 -2 2v3.77442a8.23485 8.23485 0 0 0 8.22559 8.22558h10.54882a8.23485 8.23485 0 0 0 8.22559-8.22561v-3.77439a2.0001 2.0001 0 0 0 -2-2z" fill="#f0beb4"/><path d="m76 100.897h-72a2 2 0 0 1 0-4h72a2 2 0 0 1 0 4z" fill="#637e77"/><g fill="#f9a825"><path d="m58 68.897h-16a17.019 17.019 0 0 0 -17 17v7a2.0001 2.0001 0 0 0 2 2h46a2.0001 2.0001 0 0 0 2-2v-7a17.019 17.019 0 0 0 -17-17z"/><path d="m46 66.897h8a2 2 0 1 0 0-4h-8a2 2 0 0 0 0 4z"/></g></g></svg>